<?xml version="1.0" standalone="no"?>
<!DOCTYPE svg PUBLIC "-//W3C//DTD SVG 20010904//EN"
 "http://www.w3.org/TR/2001/REC-SVG-20010904/DTD/svg10.dtd">
<svg version="1.0" xmlns="http://www.w3.org/2000/svg"
 width="1005.000000pt" height="1005.000000pt" viewBox="0 0 1005.000000 1005.000000"
 preserveAspectRatio="xMidYMid meet">

<g transform="translate(0.000000,1005.000000) scale(0.100000,-0.100000)"
fill="#000000" stroke="none">
<path d="M1890 5230 l0 -3080 530 0 530 0 0 1385 0 1385 640 0 640 0 0 485 0
485 -640 0 -640 0 0 710 0 710 865 0 865 0 0 500 0 500 -1395 0 -1395 0 0
-3080z"/>
<path d="M5720 8300 c-91 -11 -173 -36 -260 -80 -231 -117 -419 -379 -459
-640 -9 -56 -11 -663 -9 -2380 4 -2589 -4 -2331 79 -2508 51 -111 112 -194
204 -280 131 -122 246 -189 403 -235 77 -22 80 -22 867 -22 l790 0 88 28 c154
48 252 105 368 214 116 109 210 255 261 403 44 129 48 198 48 888 l0 652 -570
-2 -571 -3 0 -545 c0 -587 -1 -596 -52 -634 -28 -20 -41 -21 -405 -24 -344 -2
-380 -1 -412 15 -19 10 -40 29 -47 43 -10 20 -13 446 -13 2025 0 1965 0 2001
20 2032 31 52 55 54 471 51 360 -3 378 -4 399 -23 49 -43 50 -56 50 -514 l0
-430 80 -73 80 -73 486 -5 485 -5 -3 585 c-4 568 -5 587 -26 664 -52 187 -158
349 -367 562 -148 150 -218 202 -338 252 -157 65 -153 65 -902 68 -374 1 -709
-2 -745 -6z"/>
</g>
</svg>
